# xmcd
#
# Track frame offsets:
#	150
#	16155
#	36053
#	52058
#	68330
#	82209
#	100397
#	117607
#	135614
#	149507
#	168649
#	181633
#	196974
#	217250
#	232752
#	251353
#	265150
#	282922
#
# Disc length: 3984 seconds
#
# Revision: 1
# Processed by: cddbd v1.5.2PL0 Copyright (c) Steve Scherf et al.
# Submitted via: audiograbber 1.83.01
#
DISCID=070f8e12
DTITLE=Various Artist - My Country Vol 4 - CD1
DYEAR=2013
DGENRE=Country
TTITLE0=Blake Shelton - Honey Bee
TTITLE1=Brooks and Dunn - Red Dirt Road
TTITLE2=Florida Georgie Line - Cruise
TTITLE3=Tim McGraw - Just To See You Smile
TTITLE4=Zac Brown Band - Jump Right In
TTITLE5=Hunter Hayes - Storm Warning
TTITLE6=Luke Bryan - Country Girl (Shake It For Me)
TTITLE7=Toby Keith - I Love This Bar
TTITLE8=George Strait - Here For A Good Time
TTITLE9=Sheryl Crow - Easy
TTITLE10=Gretchen Wilson - California Girls
TTITLE11=Billy Currington - Hey Girl
TTITLE12=Brad Paisley - She's Everything
TTITLE13=Charlie Worsham - Could It Be
TTITLE14=Alan Jackson - Country Boy
TTITLE15=Brett Eldredge - Don't Ya
TTITLE16=Lee Brice - I Drive Your Truck
TTITLE17=Randy Travis - Forever And Ever, Amen
EXTD=
EXTT0=
EXTT1=
EXTT2=
EXTT3=
EXTT4=
EXTT5=
EXTT6=
EXTT7=
EXTT8=
EXTT9=
EXTT10=
EXTT11=
EXTT12=
EXTT13=
EXTT14=
EXTT15=
EXTT16=
EXTT17=
PLAYORDER=
